PathFileType	4	(X/Y/Z)	E:\Qualisys_Data\Carbon_Farble_Plate\Data\Amateur_Runner\S1\T2\S1T2V13_c3d.trc
DataRate	CameraRate	NumFrames	NumMarkers	Units	OrigDataRate	OrigDataStartFrame	OrigNumFrames
200.000000	200.000000	4	39	mm	200.000000	115	307
Frame#	Time	LSHO			RSHO			LICST			RICST			LASIS			LHEEL			RASIS			LTROC			RTROC			SACR			LTH1			LSK4			LTH2			LTH3			RHM5			LSK2			LTH4			RTH1			LTOE			RTH2			RTH3			RTH4			LLEP			RLEP			LSK1			LSK3			RSK1			LHM5			RSK2			LFT1			RSK3			RSK4			LLME			RLME			RTOE			RHEEL			RFT1			RFT2			LFT2			
		X1	Y1	Z1	X2	Y2	Z2	X3	Y3	Z3	X4	Y4	Z4	X5	Y5	Z5	X6	Y6	Z6	X7	Y7	Z7	X8	Y8	Z8	X9	Y9	Z9	X10	Y10	Z10	X11	Y11	Z11	X12	Y12	Z12	X13	Y13	Z13	X14	Y14	Z14	X15	Y15	Z15	X16	Y16	Z16	X17	Y17	Z17	X18	Y18	Z18	X19	Y19	Z19	X20	Y20	Z20	X21	Y21	Z21	X22	Y22	Z22	X23	Y23	Z23	X24	Y24	Z24	X25	Y25	Z25	X26	Y26	Z26	X27	Y27	Z27	X28	Y28	Z28	X29	Y29	Z29	X30	Y30	Z30	X31	Y31	Z31	X32	Y32	Z32	X33	Y33	Z33	X34	Y34	Z34	X35	Y35	Z35	X36	Y36	Z36	X37	Y37	Z37	X38	Y38	Z38	X39	Y39	Z39	

116	0.575	-274.0373229980469	1459.599487304688	-574.4481811523438	-287.83837890625	1478.980834960938	-242.0669555664062	-341.6261596679688	1016.958740234375	-524.4027099609375	-341.1933898925781	1030.57470703125	-222.4189300537109	-297.9013061523438	976.844482421875	-498.5081176757812	-641.082763671875	112.3756713867188	-391.2292785644531	-304.9410705566406	980.88916015625	-227.5070953369141	-412.7178344726562	900.0518188476562	-538.9404907226562	-407.4833984375	890.1414794921875	-202.7751159667969	-459.2847900390625	1043.819091796875	-369.7287292480469	-287.7143249511719	743.541748046875	-514.4075317382812	-553.0770263671875	258.4048767089844	-437.0082702636719	-369.0794372558594	737.579345703125	-540.3551025390625	-289.5103759765625	640.7673950195312	-496.1153564453125	-498.1253967285156	175.2752990722656	-206.2971801757812	-498.0825805664062	335.8694152832031	-479.4131774902344	-374.03125	640.1966552734375	-513.9036865234375	-239.0137023925781	803.34033203125	-215.9784545898438	-391.3127746582031	57.60493469238281	-408.1028747558594	-309.7965393066406	771.6781005859375	-191.2582244873047	-197.4279022216797	710.3399658203125	-215.2107238769531	-272.0645141601562	679.0491333007812	-200.8463745117188	-345.9952087402344	488.12060546875	-469.8857421875	-191.5216522216797	534.232421875	-235.1202239990234	-429.3130187988281	291.0699768066406	-461.3086853027344	-489.2267150878906	210.6277008056641	-452.3619384765625	-328.7252502441406	418.5221557617188	-219.9705352783203	-464.8746643066406	49.30575942993164	-477.9067687988281	-374.5884094238281	483.5560607910156	-237.2893524169922	-638.8014526367188	79.5572509765625	-370.0878295898438	-408.7850341796875	358.2661437988281	-232.1617584228516	-453.0867004394531	422.2664184570312	-256.9344482421875	-577.58740234375	132.0073852539062	-444.39453125	-531.8832397460938	312.7537231445312	-233.7792205810547	-442.4267883300781	134.7656860351562	-275.8503112792969	-602.2346801757812	331.4500732421875	-282.5248107910156	-616.91162109375	299.0963134765625	-310.1913146972656	-621.2998046875	311.8936767578125	-255.5947723388672	-643.2330932617188	83.77806091308594	-423.9584655761719
117	0.58	-255.5503997802734	1463.352294921875	-573.6521606445312	-273.8888854980469	1481.841064453125	-241.5388031005859	-323.5118408203125	1018.509826660156	-524.602783203125	-325.0741882324219	1034.46826171875	-223.0301818847656	-280.8668823242188	978.7498779296876	-498.544921875	-638.5235595703125	118.1411437988281	-392.742919921875	-283.0371704101562	987.6090087890624	-233.7731628417969	-396.703857421875	902.4805908203124	-538.392333984375	-390.5025939941406	894.3595581054688	-202.2049255371094	-442.4627685546875	1046.724487304688	-370.4989013671875	-274.5718688964844	744.4725341796875	-512.245849609375	-549.779052734375	262.3994445800781	-436.4867553710938	-355.9793090820312	740.214111328125	-539.5972900390625	-279.1543273925781	641.3920288085938	-494.1112060546875	-462.5598449707031	169.8173370361328	-206.4803314208984	-494.5323486328125	339.5823974609375	-478.861083984375	-363.0910949707031	642.9295043945312	-513.060791015625	-221.3882904052734	809.443359375	-215.6091461181641	-390.7632141113281	57.42077255249023	-408.1500244140625	-291.8346252441406	776.776611328125	-191.3904876708984	-178.7638397216797	716.6192626953125	-215.2415008544922	-252.9254150390625	684.435546875	-200.5509948730469	-340.7515869140625	490.2752685546875	-469.050537109375	-170.3154296875	540.4194946289062	-234.6473388671875	-425.9568176269531	293.8424072265625	-461.0166931152344	-487.0525817871094	213.4115447998047	-451.8897399902344	-304.2497253417969	419.2869873046875	-219.9576568603516	-464.3700866699219	49.49580001831055	-477.4815673828125	-352.5415344238281	482.8013305664062	-237.7075042724609	-636.50146484375	85.72618865966797	-370.6788940429688	-381.3761901855469	355.9920043945312	-232.4616394042969	-427.9541931152344	418.2479248046875	-256.9689636230469	-575.0867919921875	135.8591156005859	-444.7472229003906	-502.894287109375	305.5536499023438	-233.9357757568359	-405.003662109375	132.2532043457031	-276.1017761230469	-573.937744140625	321.4472961425781	-282.4495849609375	-587.4064331054688	288.0074462890625	-309.8519287109375	-591.6056518554688	300.3919677734375	-255.3778686523438	-641.3492431640625	88.74943542480469	-424.8309020996094
118	0.585	-237.0545806884766	1467.119018554688	-572.3240966796875	-260.1365051269531	1485.740234375	-240.7244567871094	-306.2569580078125	1020.712951660156	-524.9528198242188	-307.8274841308594	1038.430908203125	-224.2375640869141	-263.6643676757812	980.6700439453124	-498.9711608886719	-635.6181030273438	123.1615753173828	-393.4767150878906	-265.9305419921875	990.5562744140624	-234.9362335205078	-380.5048828125	905.3510131835938	-538.1738891601562	-373.3121337890625	898.6954345703125	-201.4641571044922	-424.9279174804688	1050.349975585938	-370.8035278320312	-261.6635437011719	745.0250244140625	-509.9950866699219	-545.9815063476562	266.8830871582031	-436.1061096191406	-342.7142333984375	742.91796875	-538.82470703125	-269.22021484375	642.5264892578125	-492.2189025878906	-427.0361328125	164.5632476806641	-206.6624450683594	-490.4949340820312	343.9813537597656	-477.98974609375	-352.7357177734375	646.0880126953125	-512.3251342773438	-204.1139526367188	815.2916259765625	-215.6452789306641	-390.3815002441406	57.20552825927734	-408.1260375976562	-274.110595703125	781.893798828125	-190.8601226806641	-160.0025482177734	723.0899658203125	-215.4620056152344	-233.7331085205078	690.1534423828125	-200.4838714599609	-335.0125427246094	493.1188354492188	-468.4859313964844	-149.6091613769531	546.4165649414062	-234.5715942382812	-422.5533447265625	297.473876953125	-461.0476379394531	-483.4488525390625	217.7505950927734	-452.4660034179688	-279.5896301269531	420.6498107910156	-220.1261749267578	-463.3921508789062	50.02447509765625	-477.5944213867188	-330.5089416503906	481.6940612792969	-237.6325225830078	-634.3207397460938	91.92215728759766	-371.2441101074219	-353.9765930175781	354.2334594726562	-232.0676727294922	-402.8509826660156	413.7250671386719	-257.9902038574219	-572.3087158203125	140.0976257324219	-444.7645568847656	-473.1225280761719	298.0779724121094	-234.0035095214844	-367.7369079589844	129.8851928710938	-276.0939331054688	-545.4876708984375	311.1731262207031	-282.6502990722656	-559.5323486328125	277.9361267089844	-311.4827880859375	-564.6727905273438	289.0658874511719	-257.2547912597656	-639.0494995117188	94.32202911376952	-425.7577514648438
119	0.59	-218.3524017333984	1470.779541015625	-571.3294067382812	-246.3063201904297	1489.406982421875	-240.2808990478516	-288.9131774902344	1023.327514648438	-525.6614379882812	-291.2281494140625	1042.677368164062	-224.3028411865234	-246.0775604248047	983.0462646484376	-499.1194458007812	-632.755615234375	128.7337799072266	-394.3365173339844	-249.7754974365234	994.380859375	-233.8114624023438	-364.3009033203125	908.362060546875	-537.833251953125	-356.2823486328125	902.833251953125	-200.7785491943359	-407.7746276855469	1053.756591796875	-371.4241638183594	-248.6808929443359	746.018310546875	-508.3857727050781	-541.8157348632812	271.4890747070312	-435.8103637695312	-329.2089233398438	745.8624267578125	-538.2225952148438	-258.4564208984375	643.7095947265625	-490.3952941894531	-391.3432922363281	159.3249664306641	-206.7460784912109	-486.1330871582031	348.6212768554688	-477.4639282226562	-342.3968200683594	649.6209716796875	-511.3147888183594	-186.6907958984375	821.1016235351562	-216.1244201660156	-389.4012145996094	56.70136642456055	-408.0904846191406	-255.7873840332031	787.0155029296875	-190.5757446289062	-141.4388885498047	729.9275512695312	-215.6698455810547	-214.8354949951172	695.504150390625	-200.6063690185547	-329.2467041015625	496.0630798339844	-467.6154479980469	-129.3528137207031	552.5784301757812	-234.4126434326172	-418.4223937988281	301.7640075683594	-461.5328369140625	-480.8255004882812	222.4994201660156	-452.6135559082031	-254.8458404541016	421.3635864257812	-219.8166198730469	-462.7018127441406	50.60630798339844	-477.3885498046875	-309.1514587402344	480.9524536132812	-237.9188385009766	-632.06982421875	97.19252777099608	-371.7151184082031	-326.8611145019531	351.7780151367188	-232.4339447021484	-377.9327697753906	409.4300842285156	-257.64453125	-569.0797119140625	144.9669952392578	-445.7546691894531	-443.5271911621094	290.7209167480469	-233.9061584472656	-329.7791442871094	127.9352188110352	-276.6843872070312	-516.3291625976562	300.1313781738281	-282.7549438476562	-526.6818237304688	266.0047302246094	-311.1362915039062	-533.3574829101562	277.0549011230469	-256.9407043457031	-636.6085815429688	99.73796081542967	-425.9754943847656
